<svg xmlns="http://www.w3.org/2000/svg" viewBox="0 0 24 24" fill="#1b6ec2">
  <path d="M0 0h24v24H0z" fill="none"/>
  <path d="M20 9V7c0-1.1-.9-2-2-2h-3c0-1.66-1.34-3-3-3S9 3.34 9 5H6c-1.1 0-2 .9-2 2v2c-1.66 0-3 1.34-3 3s1.34 3 3 3v4c0 1.1.9 2 2 2h12c1.1 0 2-.9 2-2v-4c1.66 0 3-1.34 3-3s-1.34-3-3-3zM9 13c-.55 0-1-.45-1-1s.45-1 1-1 1 .45 1 1-.45 1-1 1zm3-7.5c.83 0 1.5.67 1.5 1.5s-.67 1.5-1.5 1.5-1.5-.67-1.5-1.5.67-1.5 1.5-1.5zM15 13c-.55 0-1-.45-1-1s.45-1 1-1 1 .45 1 1-.45 1-1 1zm3 4h-2v-2h-2v2h-2v-2H8v2H6v-2h12v2z"/>
</svg>
